<?xml version="1.0" encoding="UTF-8"?><svg id="Layer_1" xmlns="http://www.w3.org/2000/svg" viewBox="0 0 512.11 512.11"><defs><style>.cls-1{fill:#ebebeb;}</style></defs><circle class="cls-1" cx="411.31" cy="128" r="8.53"/><circle class="cls-1" cx="377.18" cy="128" r="8.53"/><circle class="cls-1" cx="343.04" cy="128" r="8.53"/><circle class="cls-1" cx="308.91" cy="128" r="8.53"/><circle class="cls-1" cx="274.78" cy="128" r="8.53"/><circle class="cls-1" cx="291.84" cy="153.6" r="8.53"/><circle class="cls-1" cx="325.98" cy="153.6" r="8.53"/><circle class="cls-1" cx="360.11" cy="153.6" r="8.53"/><circle class="cls-1" cx="394.24" cy="153.6" r="8.53"/><circle class="cls-1" cx="411.31" cy="179.2" r="8.53"/><circle class="cls-1" cx="377.18" cy="179.2" r="8.53"/><circle class="cls-1" cx="343.04" cy="179.2" r="8.53"/><circle class="cls-1" cx="308.91" cy="179.2" r="8.53"/><circle class="cls-1" cx="274.78" cy="179.2" r="8.53"/><circle class="cls-1" cx="291.84" cy="204.8" r="8.53"/><circle class="cls-1" cx="325.98" cy="204.8" r="8.53"/><circle class="cls-1" cx="360.11" cy="204.8" r="8.53"/><circle class="cls-1" cx="394.24" cy="204.8" r="8.53"/><circle class="cls-1" cx="343.04" cy="230.4" r="8.53"/><circle class="cls-1" cx="308.91" cy="230.4" r="8.53"/><circle class="cls-1" cx="274.78" cy="230.4" r="8.53"/><circle class="cls-1" cx="291.84" cy="256" r="8.53"/><circle class="cls-1" cx="325.98" cy="256" r="8.53"/><circle class="cls-1" cx="308.91" cy="281.6" r="8.53"/><circle class="cls-1" cx="274.78" cy="281.6" r="8.53"/><circle class="cls-1" cx="240.64" cy="281.6" r="8.53"/><circle class="cls-1" cx="223.58" cy="307.2" r="8.53"/><circle class="cls-1" cx="257.71" cy="307.2" r="8.53"/><circle class="cls-1" cx="291.84" cy="307.2" r="8.53"/><circle class="cls-1" cx="308.91" cy="332.8" r="8.53"/><circle class="cls-1" cx="274.78" cy="332.8" r="8.53"/><circle class="cls-1" cx="257.71" cy="358.4" r="8.53"/><circle class="cls-1" cx="240.64" cy="332.8" r="8.53"/><circle class="cls-1" cx="206.51" cy="332.8" r="8.53"/><circle class="cls-1" cx="172.38" cy="332.8" r="8.53"/><circle class="cls-1" cx="155.31" cy="358.4" r="8.53"/><circle class="cls-1" cx="189.44" cy="358.4" r="8.53"/><circle class="cls-1" cx="223.58" cy="358.4" r="8.53"/><circle class="cls-1" cx="240.64" cy="384" r="8.53"/><circle class="cls-1" cx="206.51" cy="384" r="8.53"/><circle class="cls-1" cx="172.38" cy="384" r="8.53"/><circle class="cls-1" cx="291.84" cy="358.4" r="8.53"/><circle class="cls-1" cx="325.98" cy="358.4" r="8.53"/><circle class="cls-1" cx="274.78" cy="384" r="8.53"/><circle class="cls-1" cx="189.44" cy="409.6" r="8.53"/><circle class="cls-1" cx="223.58" cy="409.6" r="8.53"/><circle class="cls-1" cx="257.71" cy="409.6" r="8.53"/><circle class="cls-1" cx="206.51" cy="435.2" r="8.53"/><path class="cls-1" d="M447.16,238.81c-.12-.17-.23-.35-.35-.52-1.6-2.36-3.1-4.98-4.56-8-.17-.35-.37-.67-.58-.99-3.12-6.76-4.76-13.8-4.76-20.82V8.54C436.91,3.82,433.09,0,428.38,0h-34.07s-.05,0-.07,0-.05,0-.07,0h-34s-.05,0-.07,0-.05,0-.07,0h-34s-.04,0-.07,0-.05,0-.07,0h-34s-.05,0-.07,0-.05,0-.07,0h-34.07c-4.71,0-8.53,3.82-8.53,8.53V201.45c0,24.55-11.73,47.62-31.58,62.07l-142.28,103.61c-.56,.56-1.1,1.14-1.64,1.71-.3,.24-.59,.49-.85,.77-22.78,23.99-28.81,58.07-17.98,87.39,.06,.17,.12,.35,.19,.52,.35,.94,.74,1.87,1.13,2.8,.14,.33,.27,.67,.41,1,.34,.78,.71,1.56,1.07,2.33,.22,.46,.42,.92,.64,1.37,.33,.66,.68,1.31,1.02,1.96,.29,.55,.57,1.11,.87,1.65,.32,.57,.66,1.13,.99,1.7,.35,.61,.7,1.22,1.07,1.82,.33,.53,.69,1.06,1.03,1.58,.4,.61,.79,1.23,1.21,1.84,.38,.55,.79,1.1,1.19,1.64,.41,.56,.8,1.13,1.22,1.68,.54,.71,1.11,1.4,1.68,2.09,.31,.38,.6,.76,.92,1.14,.9,1.07,1.83,2.12,2.79,3.15,.98,1.05,1.98,2.06,2.99,3.05,.34,.33,.69,.64,1.04,.97,.67,.63,1.34,1.26,2.03,1.87,.49,.43,.98,.83,1.48,1.25,.56,.47,1.11,.94,1.68,1.39,.58,.46,1.17,.91,1.76,1.35,.49,.37,.97,.74,1.47,1.1,.66,.48,1.33,.94,2.01,1.39,.43,.29,.86,.58,1.29,.86,.74,.48,1.49,.95,2.24,1.4,.37,.22,.74,.45,1.11,.66,.82,.48,1.65,.95,2.48,1.39,.3,.16,.6,.32,.9,.48,.91,.48,1.82,.94,2.74,1.38,.21,.1,.43,.2,.64,.3,1.01,.47,2.03,.93,3.06,1.36,.09,.04,.19,.08,.28,.11,30.36,12.64,66.71,6.86,91.68-17.71l144.71-103.24c6.98-4.98,15.08-8.39,23.93-10.22,.52,0,1.05-.03,1.57-.13,4.53-.83,8.53-1.3,12.32-1.41h.33c.45-.02,.89-.03,1.33-.03,1.5,0,2.99-.05,4.49-.14,5.17-.29,10.34-1.06,15.51-2.34,6.22-1.54,12.17-3.78,17.77-6.59,25.6-12.87,43.85-38.11,46.9-67.06,.27-2.62,.43-5.23,.47-7.82,.29-18.14-5.11-35.5-15.34-50.11Zm-53.91,115.01c-3.96,.98-7.92,1.59-11.87,1.85-1.35,.09-2.7,.13-4.05,.13-4.41,.01-8.75,.32-12.99,.9-13.47-12.77-21.3-30.48-21.3-49.49,0-37.71,30.56-68.27,68.27-68.27,5.86,0,11.64,.75,17.24,2.22,1.03,1.88,2.15,3.73,3.35,5.56,.41,.63,.83,1.26,1.26,1.87,8.19,11.7,12.5,25.56,12.27,40.09-.03,2.08-.16,4.17-.38,6.26-2.33,22.1-15.9,41.62-35.09,52.28-5.2,2.89-10.8,5.13-16.71,6.59ZM266.24,85.33v-17.07h153.6v17.07h-153.6Zm17.07-68.26v8.53c0,4.71,3.82,8.53,8.53,8.53s8.53-3.82,8.53-8.53v-8.53h17.07v8.53c0,4.71,3.82,8.53,8.53,8.53s8.53-3.82,8.53-8.53v-8.53h17.07v8.53c0,4.71,3.82,8.53,8.53,8.53s8.53-3.82,8.53-8.53v-8.53h17.07v8.53c0,4.71,3.82,8.53,8.53,8.53s8.53-3.82,8.53-8.53v-8.53h17.07V51.2h-153.6V17.07h17.07Zm-110.93,460.8c0,1.7-.05,3.43-.16,5.22-21.18,14.66-48.55,15.68-70.47,3.74-.05-.03-.1-.05-.15-.08-.69-.38-1.36-.77-2.04-1.18-.26-.15-.52-.3-.77-.46-.58-.35-1.15-.72-1.71-1.1-.35-.23-.7-.46-1.05-.7-.5-.34-1-.69-1.49-1.05-.41-.3-.82-.6-1.23-.91-.43-.33-.87-.66-1.3-1-.47-.38-.93-.76-1.39-1.15-.36-.31-.73-.61-1.09-.93-.55-.49-1.1-.99-1.64-1.5-.26-.24-.53-.48-.79-.73-.8-.78-1.59-1.58-2.36-2.41-.75-.81-1.48-1.63-2.19-2.46-.24-.28-.46-.57-.69-.85-.45-.55-.91-1.1-1.34-1.66-.31-.41-.61-.82-.91-1.24-.33-.45-.66-.89-.98-1.35-.34-.48-.65-.98-.98-1.47-.26-.39-.52-.78-.76-1.17-.34-.55-.67-1.1-.99-1.65-.2-.35-.41-.69-.61-1.04-.34-.6-.66-1.21-.98-1.82-.16-.3-.32-.61-.48-.91-.33-.66-.65-1.32-.95-1.98-.12-.26-.25-.52-.36-.79-.32-.71-.62-1.43-.91-2.15-.09-.22-.18-.43-.26-.65-.3-.77-.59-1.55-.86-2.32-.06-.17-.12-.33-.18-.5-.29-.83-.56-1.67-.81-2.51-.03-.11-.06-.21-.1-.32-.26-.9-.51-1.81-.74-2.72-.01-.04-.02-.08-.03-.11-5.07-20.51-.36-42.91,14.08-59.86,49.91,2.2,89.66,43.34,89.66,93.75Zm155.59-107.1l-11.95,8.53c-1.53-2.3-4.14-3.82-7.11-3.82-4.71,0-8.53,3.82-8.53,8.53,0,1.95,.67,3.75,1.77,5.19l-55.72,39.75c-1.52-1.41-3.55-2.27-5.78-2.27-4.71,0-8.53,3.82-8.53,8.53,0,1.22,.26,2.39,.73,3.44l-43.68,31.17c-2.37-32.97-19.15-61.96-44.1-80.68,1.07-1.43,1.72-3.2,1.72-5.12,0-4.71-3.82-8.53-8.53-8.53-3.26,0-6.09,1.83-7.53,4.52-9.11-4.87-18.98-8.51-29.4-10.68l11.67-8.5c1.04,3.54,4.31,6.13,8.18,6.13,4.71,0,8.53-3.82,8.53-8.53,0-2.93-1.48-5.52-3.73-7.05l55.72-40.58c1.35,2.93,4.31,4.96,7.74,4.96,4.71,0,8.53-3.82,8.53-8.53,0-2.48-1.07-4.71-2.76-6.27l32.43-23.61c8.46-6.16,15.71-13.6,21.57-21.95-.02,.21-.03,.42-.03,.64,0,4.71,3.82,8.53,8.53,8.53s8.53-3.82,8.53-8.53-3.82-8.53-8.53-8.53c-1.5,0-2.91,.39-4.14,1.07,8.19-14.12,12.67-30.32,12.67-47.09V102.4h17.07c0,4.71,3.82,8.54,8.53,8.54s8.53-3.82,8.53-8.53h17.07c0,4.71,3.82,8.53,8.53,8.53s8.53-3.82,8.53-8.53h17.07c0,4.71,3.82,8.53,8.53,8.53s8.53-3.82,8.53-8.53h17.07c0,4.71,3.82,8.53,8.53,8.53s8.53-3.82,8.53-8.53h17.07v106.07c0,4.71,.55,9.39,1.58,14-3.34-.4-6.71-.6-10.11-.6-9.34,0-18.32,1.52-26.73,4.29-1.47-2.56-4.23-4.29-7.4-4.29-4.71,0-8.53,3.82-8.53,8.53,0,.93,.15,1.82,.43,2.66-25.74,14.69-43.1,42.38-43.1,74.14,0,20.17,7.07,39.2,19.5,54.25-6.24,2.36-12.11,5.46-17.51,9.31Z"/></svg>